<svg width="210" height="67" viewBox="0 0 210 67" xmlns="http://www.w3.org/2000/svg"><path d="M34.0439 55.788C33.3302 55.4429 32.5487 55.2606 31.7557 55.2543C30.0771 55.2543 29.0185 56.1775 29.0185 58.9365C29.0185 61.925 29.9595 62.8642 31.5259 62.8642C32.1542 62.8669 32.7689 62.681 33.2901 62.3305V59.6623H31.034L31.3815 58.5309H34.648V63.9475H34.1722L33.7498 63.2111C33.0468 63.7283 32.1961 64.007 31.3227 64.0062C29.0506 64.0062 27.5804 62.6934 27.5804 58.9525C27.5804 55.4838 29.0987 54.1497 31.6916 54.1497C32.6315 54.1426 33.5611 54.345 34.4127 54.742L34.0439 55.788Z" fill="#706F6F"></path><path d="M37.5295 56.8873L38.0053 57.8265C38.6547 57.2157 39.4905 56.8399 40.379 56.7592V58.1467C39.6162 58.1759 38.8716 58.3882 38.2085 58.7657V63.8675H36.888V56.8873H37.5295Z" fill="#706F6F"></path><path d="M47.1525 60.3667C47.1525 62.9282 46.0833 63.9795 44.1694 63.9795C42.2555 63.9795 41.1917 62.9122 41.1917 60.3667C41.1917 57.8212 42.2609 56.7432 44.1694 56.7432C46.078 56.7432 47.1525 57.8105 47.1525 60.3667ZM42.5228 60.3667C42.5228 62.3466 43.159 62.9389 44.1694 62.9389C45.1798 62.9389 45.8214 62.3466 45.8214 60.3667C45.8214 58.3869 45.1852 57.7838 44.1694 57.7838C43.1537 57.7838 42.5228 58.3922 42.5228 60.3667Z" fill="#706F6F"></path><path d="M50.1303 56.8873V61.5247C50.1303 62.4479 50.3495 62.8695 51.2476 62.8695C51.8828 62.8282 52.4804 62.5546 52.9263 62.101V56.8873H54.2467V63.8514H53.6747L53.3272 62.9709C52.6692 63.6045 51.7979 63.9699 50.8841 63.9955C49.6117 63.9955 48.8151 63.3018 48.8151 61.6581V56.8873H50.1303Z" fill="#706F6F"></path><path d="M57.1657 56.8873L57.6575 57.5971C58.3619 57.0825 59.2021 56.7856 60.074 56.7432C61.2287 56.7432 62.2873 57.421 62.2873 60.2973C62.2873 63.1737 60.94 63.9795 59.6142 63.9795C59.0109 63.9704 58.4159 63.8378 57.866 63.59V66.3756L56.5509 66.8132V56.8873H57.1657ZM57.8874 62.5494C58.4025 62.8099 58.9726 62.9435 59.5501 62.9389C60.229 62.9389 60.924 62.4053 60.924 60.2707C60.924 58.3762 60.2878 57.8319 59.5928 57.8319C58.9903 57.8739 58.4062 58.0567 57.8874 58.3655V62.5494Z" fill="#706F6F"></path><path d="M64.9763 60.6015C64.9763 62.4213 65.6553 62.9389 66.7726 62.9389C67.4096 62.9185 68.0214 62.6855 68.5101 62.2772L68.9271 63.067C68.2744 63.6508 67.4299 63.9755 66.5534 63.9795C64.8053 63.9795 63.5864 63.0136 63.5864 60.3987C63.5864 57.6664 64.6556 56.7432 66.4358 56.7432C68.2161 56.7432 68.9271 57.8852 68.9271 59.6463V60.1799L68.5956 60.6282L64.9763 60.6015ZM67.6227 59.6783C67.6227 58.3922 67.2484 57.7838 66.3663 57.7838C65.4842 57.7838 65.0619 58.3175 64.9763 59.6783H67.6227Z" fill="#706F6F"></path><path d="M75.8129 54.2457V62.7255H79.3306L79.6353 63.8515H74.455V54.2457H75.8129Z" fill="#706F6F"></path><path d="M80.9772 57.2609C81.7346 56.9107 82.559 56.7287 83.3937 56.7272C84.8157 56.7272 85.7673 57.3623 85.7673 58.7178V63.8355H85.1899L84.8424 62.971C84.2298 63.5923 83.4006 63.9536 82.5276 63.9796C81.1536 63.9796 80.4747 63.0137 80.4747 61.6262C80.4465 61.3587 80.4775 61.0883 80.5656 60.8342C80.6537 60.58 80.7966 60.3483 80.9842 60.1553C81.1719 59.9624 81.3998 59.813 81.6517 59.7176C81.9036 59.6223 82.1734 59.5834 82.442 59.6036C83.126 59.6253 83.8054 59.7219 84.4682 59.8918V58.7818C84.4682 58.0293 83.8427 57.7839 83.105 57.7839C82.4546 57.7826 81.812 57.9247 81.2231 58.2001L80.9772 57.2609ZM84.4682 60.9004C83.8911 60.7406 83.2972 60.6492 82.6987 60.6282C82.1052 60.6282 81.7898 60.9591 81.7898 61.6955C81.7898 62.5334 82.1641 62.9656 82.859 62.9656C83.467 62.9421 84.042 62.6838 84.4629 62.2452L84.4682 60.9004Z" fill="#706F6F"></path><path d="M94.4226 54.2457C96.374 54.2457 97.5768 54.8221 97.5768 56.7005C97.5976 57.1773 97.468 57.6485 97.2061 58.0478C96.9442 58.4471 96.5634 58.7542 96.1173 58.9259C97.2881 59.182 97.8655 59.8331 97.8655 61.2526C97.8655 63.1684 96.6199 63.8515 94.5242 63.8515H91.7282V54.2457H94.4226ZM93.0915 58.4616H94.5082C94.7255 58.4681 94.942 58.4305 95.1443 58.351C95.3466 58.2714 95.5306 58.1516 95.6852 57.9989C95.8397 57.8462 95.9615 57.6637 96.0431 57.4625C96.1248 57.2613 96.1646 57.0456 96.1601 56.8286C96.1601 55.7613 95.6255 55.3717 94.4654 55.3717H93.0915V58.4616ZM93.0915 62.7308H94.567C95.8233 62.7308 96.406 62.2825 96.406 61.1832C96.406 60.0839 95.8714 59.5822 94.5242 59.5822H93.0915V62.7308Z" fill="#706F6F"></path><path d="M99.603 57.2609C100.36 56.9094 101.185 56.7273 102.019 56.7272C103.436 56.7272 104.393 57.3623 104.393 58.7178V63.8355H103.81L103.463 62.9549C102.851 63.5772 102.021 63.9387 101.148 63.9636C99.7741 63.9636 99.0951 62.9976 99.0951 61.6101C99.0669 61.3427 99.098 61.0723 99.186 60.8182C99.2741 60.564 99.417 60.3323 99.6047 60.1393C99.7923 59.9464 100.02 59.797 100.272 59.7016C100.524 59.6063 100.794 59.5674 101.062 59.5876C101.746 59.6092 102.426 59.7059 103.089 59.8758V58.7658C103.089 58.0133 102.463 57.7679 101.725 57.7679C101.077 57.7665 100.436 57.9087 99.8489 58.1841L99.603 57.2609ZM103.089 60.9004C102.513 60.7409 101.921 60.6496 101.324 60.6282C100.731 60.6282 100.41 60.9591 100.41 61.6955C100.41 62.5334 100.79 62.9656 101.479 62.9656C102.088 62.9432 102.663 62.6847 103.083 62.2452L103.089 60.9004Z" fill="#706F6F"></path><path d="M107.157 56.8873L107.649 57.5971C108.361 57.0696 109.217 56.7717 110.103 56.7432C111.364 56.7432 112.161 57.4103 112.161 58.9259V63.8515H110.846V59.0966C110.846 58.2001 110.407 57.8586 109.659 57.8586C109.038 57.8879 108.431 58.0498 107.879 58.3335V63.8515H106.558V56.8873H107.157Z" fill="#706F6F"></path><path d="M119.48 56.8179V66.5678L118.181 67V63.2324C117.632 63.6919 116.945 63.9549 116.229 63.9795C115.069 63.9795 113.824 63.2431 113.824 60.3987C113.824 57.6664 115.053 56.7432 116.299 56.7432C117.097 56.7726 117.873 57.006 118.555 57.421L119.089 56.8179H119.48ZM118.181 58.2321C117.678 57.9564 117.118 57.8028 116.545 57.7838C115.764 57.7838 115.171 58.5897 115.171 60.4147C115.171 62.3306 115.876 62.9389 116.518 62.9389C117.142 62.9201 117.736 62.6666 118.181 62.2292V58.2321Z" fill="#706F6F"></path><path d="M122.96 56.8873V61.5247C122.96 62.4479 123.174 62.8695 124.072 62.8695C124.713 62.8311 125.316 62.5573 125.767 62.101V56.8873H127.082V63.8514H126.499L126.168 62.9709C125.509 63.6027 124.638 63.9678 123.725 63.9955C122.447 63.9955 121.65 63.3018 121.65 61.6581V56.8873H122.96Z" fill="#706F6F"></path><path d="M130.29 60.6015C130.29 62.4213 130.974 62.9389 132.086 62.9389C132.721 62.9194 133.332 62.6862 133.818 62.2772L134.24 63.067C133.588 63.6508 132.743 63.9755 131.867 63.9795C130.118 63.9795 128.9 63.0136 128.9 60.3987C128.9 57.6664 129.969 56.7432 131.754 56.7432C133.54 56.7432 134.24 57.8852 134.24 59.6463V60.1799L133.909 60.6282L130.29 60.6015ZM132.936 59.6783C132.936 58.3922 132.562 57.7838 131.68 57.7838C130.797 57.7838 130.375 58.3175 130.29 59.6783H132.936Z" fill="#706F6F"></path><path d="M142.618 54.2457C144.965 54.2457 145.948 54.8808 145.948 57.2769C145.948 59.5876 144.414 60.2973 142.532 60.2973C142.062 60.2931 141.592 60.2592 141.126 60.1959V63.8515H139.768V54.2457H142.618ZM141.126 59.0486C141.572 59.1131 142.022 59.147 142.473 59.15C143.746 59.15 144.558 58.6857 144.558 57.2555C144.558 55.8253 143.992 55.3504 142.618 55.3504H141.137L141.126 59.0486Z" fill="#706F6F"></path><path d="M152.989 60.3667C152.989 62.9282 151.92 63.9795 150.011 63.9795C148.103 63.9795 147.028 62.9122 147.028 60.3667C147.028 57.8212 148.097 56.7432 150.011 56.7432C151.925 56.7432 152.989 57.8105 152.989 60.3667ZM148.359 60.3667C148.359 62.3466 148.996 62.9389 150.011 62.9389C151.027 62.9389 151.663 62.3466 151.663 60.3667C151.663 58.3869 151.022 57.7838 150.011 57.7838C149.001 57.7838 148.359 58.3922 148.359 60.3667Z" fill="#706F6F"></path><path d="M158.549 58.2321C158.009 57.9437 157.408 57.7899 156.795 57.7838C156.1 57.7838 155.598 58.0133 155.598 58.6803C155.598 59.1393 155.956 59.4008 156.421 59.5715L157.549 59.9771C158.463 60.308 159.041 60.8576 159.041 61.8716C159.041 63.2324 158.127 64.0062 156.582 64.0062C155.706 64.0057 154.849 63.7598 154.106 63.2964L154.465 62.3465C155.073 62.7288 155.772 62.9425 156.491 62.9656C157.143 62.9656 157.683 62.7201 157.683 61.9836C157.683 61.4927 157.33 61.2365 156.844 61.0444L155.828 60.6548C154.887 60.308 154.293 59.7583 154.293 58.7604C154.293 57.4209 155.293 56.7699 156.683 56.7699C157.455 56.7516 158.218 56.9356 158.896 57.3035L158.549 58.2321Z" fill="#706F6F"></path><path d="M162.12 55.1956V56.8873H164.162L163.874 57.8585H162.12V62.1278C162.12 62.6614 162.355 62.8642 162.746 62.8642C163.189 62.8363 163.617 62.6967 163.991 62.4586L164.28 63.3872C163.709 63.7684 163.042 63.9828 162.355 64.0062C162.142 64.0274 161.926 64.0001 161.725 63.9264C161.523 63.8526 161.341 63.7343 161.192 63.5803C161.043 63.4263 160.931 63.2406 160.864 63.0371C160.797 62.8336 160.777 62.6176 160.805 62.4053V57.8585H159.779V57.3622L160.805 56.9887L161.484 55.1956H162.12Z" fill="#706F6F"></path><path d="M165.52 57.2609C166.278 56.9107 167.102 56.7287 167.937 56.7272C169.359 56.7272 170.316 57.3623 170.316 58.7178V63.8355H169.733L169.385 62.9549C168.773 63.5772 167.944 63.9387 167.071 63.9636C165.697 63.9636 165.018 62.9976 165.018 61.6101C164.99 61.3427 165.021 61.0723 165.109 60.8182C165.197 60.564 165.34 60.3323 165.527 60.1393C165.715 59.9464 165.943 59.797 166.195 59.7016C166.447 59.6063 166.716 59.5674 166.985 59.5876C167.667 59.6092 168.345 59.7058 169.006 59.8758V58.7658C169.006 58.0133 168.386 57.7679 167.648 57.7679C166.999 57.766 166.358 57.9081 165.772 58.1841L165.52 57.2609ZM169.006 60.9004C168.431 60.7405 167.838 60.6492 167.242 60.6282C166.654 60.6282 166.333 60.9591 166.333 61.6955C166.333 62.5334 166.707 62.9656 167.402 62.9656C168.011 62.9443 168.586 62.6856 169.006 62.2452V60.9004Z" fill="#706F6F"></path><path d="M173.801 53.1464V62.2879C173.801 62.6668 173.972 62.8215 174.266 62.8215C174.568 62.8083 174.86 62.7182 175.116 62.56L175.437 63.5153C174.976 63.8305 174.43 64.0014 173.871 64.0062C173.048 64.0062 172.481 63.558 172.481 62.4907V53.5787L173.801 53.1464Z" fill="#706F6F"></path><path d="M177.415 60.6015C177.415 62.4213 178.094 62.9389 179.212 62.9389C179.847 62.9194 180.457 62.6862 180.944 62.2772L181.366 63.067C180.713 63.6508 179.869 63.9755 178.992 63.9795C177.244 63.9795 176.031 63.0136 176.031 60.3987C176.031 57.6664 177.1 56.7432 178.875 56.7432C180.65 56.7432 181.366 57.8852 181.366 59.6463V60.1799L181.035 60.6282L177.415 60.6015ZM180.088 59.6783C180.088 58.3922 179.709 57.7838 178.827 57.7838C177.945 57.7838 177.522 58.3175 177.437 59.6783H180.088Z" fill="#706F6F"></path><path d="M16.4071 24.7081L16.3376 25.0069C15.9527 26.7573 14.7338 29.6871 11.045 29.6871C10.2235 29.7181 9.40442 29.5786 8.6397 29.2773C7.87498 28.976 7.18125 28.5195 6.60242 27.9367C5.2404 26.4218 4.50316 24.4486 4.53883 22.4134H20.6466V22.0772C20.6745 20.6042 20.5364 19.1328 20.2349 17.6906C18.8877 11.9698 14.3542 9.93128 10.612 9.93128C5.49043 9.92594 0 13.4854 0 21.3087C0 28.5504 4.11114 33.0491 10.7296 33.0491C14.0923 33.0491 18.5349 31.779 20.6145 25.7274L20.7589 25.3005L16.4071 24.7081ZM4.64575 19.1795C5.13225 15.5666 7.27603 13.3413 10.3233 13.3413C11.2054 13.3413 15.5464 13.6242 16.0383 19.2115L4.64575 19.1795Z" fill="#49B1E5"></path><path d="M42.8543 28.5931C42.5251 28.7271 42.1726 28.7942 41.8171 28.7905C40.7479 28.7905 40.6731 28.2569 40.6249 26.1543V19.2115C40.6731 16.4365 40.7158 13.8216 38.2032 11.7991C35.9899 10.0647 32.7341 9.93127 31.7879 9.93127C28.2434 9.93127 25.5329 11.3348 24.159 13.8803C23.6643 14.8569 23.3682 15.9215 23.2876 17.0128L23.2288 17.5465L27.7141 17.8133V17.4558C27.7141 16.3351 27.7141 13.3466 31.9269 13.3466C36.3534 13.3413 36.3534 16.6766 36.3534 18.886V19.1154L33.2848 19.3609C26.3669 19.8946 24.3194 21.6183 23.2288 23.2352C22.5656 24.2348 22.2157 25.409 22.2237 26.6079C22.2237 30.3435 25.3939 33.0117 29.7617 33.0117C31.0917 33.0121 32.4074 32.7373 33.6257 32.2045C34.844 31.6718 35.9384 30.8927 36.8399 29.9165C37.305 31.7843 38.5827 32.6969 40.7372 32.6969C41.41 32.6943 42.0792 32.5991 42.726 32.414L43.0628 32.3286L43.3194 32.2699V28.3903L42.8543 28.5931ZM36.3962 22.1039C36.3962 24.8575 36.3267 25.3058 35.8616 26.3304C34.9367 28.2836 33.0495 29.3509 30.5208 29.3509C28.2969 29.3509 26.8534 28.2462 26.8534 26.5439C26.8534 25.2791 27.388 23.8756 31.2265 23.0484C33.1297 22.6375 34.7496 22.3867 36.038 22.1786L36.3962 22.1039Z" fill="#49B1E5"></path><path d="M55.7971 19.6384L53.7709 19.1421C50.8573 18.4377 48.9595 17.8507 48.9595 16.143C48.9595 14.8035 50.312 13.3787 52.8086 13.3787C54.1923 13.3338 55.5512 13.7527 56.6685 14.5687C57.9035 15.5239 58.0211 16.3991 58.0692 17.7279V18.0961L62.6401 17.5091L62.592 17.1729C62.0895 13.6935 59.3523 9.96863 53.1722 9.96863C47.9972 9.96863 44.6505 12.5728 44.6505 16.5912C44.6505 21.2127 48.9274 22.2319 52.4077 23.0484L54.5461 23.4807C57.1122 23.9717 58.6893 24.3879 58.6893 26.5225C58.6893 29.2762 55.765 29.6871 54.0276 29.6871C52.6055 29.6871 51.1353 29.5537 49.9699 28.5557C49.432 28.0773 49.0183 27.476 48.7641 26.8031C48.5099 26.1302 48.4229 25.4059 48.5104 24.6921V24.2865L43.7898 25.0283L43.8219 25.3431C43.9204 26.5151 44.2638 27.6534 44.8301 28.6847C45.3964 29.716 46.173 30.6174 47.1097 31.3307C48.7135 32.4674 51.1193 33.0971 53.8725 33.0971C60.2237 33.0971 63.1159 29.4523 63.1159 26.0689C63.1159 21.3354 58.3525 20.2308 55.7971 19.6384Z" fill="#49B1E5"></path><path d="M104.853 12.5888C103.008 10.8484 100.559 9.89166 98.0206 9.92059C94.1821 9.92059 92.1078 11.6923 91.0706 12.8663V0H86.7938V32.4247H91.0706V30.2901C92.76 32.1098 95.123 33.0651 97.9778 33.0651C101.373 33.0651 104.099 31.779 105.874 29.3295C107.416 27.0284 108.202 24.3055 108.125 21.5382C108.125 17.7439 106.997 14.6487 104.858 12.5942L104.853 12.5888ZM103.623 21.3461C103.623 25.2257 101.977 29.3509 97.3469 29.3509C92.7172 29.3509 90.9744 25.3004 90.9744 21.5115C91.0279 14.4033 95.8982 13.8536 97.3897 13.8536C101.175 13.8536 103.623 16.7887 103.623 21.3247" fill="#706F6F"></path><path d="M128.231 12.7596C127.257 11.8176 126.102 11.0812 124.837 10.5944C123.571 10.1075 122.22 9.88018 120.864 9.92592C112.813 9.92592 109.958 16.2497 109.958 21.6663C109.886 24.4877 110.784 27.2487 112.503 29.4896C114.412 31.8163 117.256 33.0437 120.736 33.0437C127.077 33.0437 131.364 28.4009 131.428 21.4848C131.455 17.952 130.322 14.8515 128.221 12.7543L128.231 12.7596ZM114.54 21.7143C114.54 18.6351 115.379 13.4694 120.955 13.4694C122.693 13.4694 125.767 14.1364 126.606 18.5871C126.797 19.5368 126.871 20.5065 126.825 21.4741C126.686 28.1074 123.409 29.4789 120.683 29.4789C115.139 29.4789 114.535 24.0303 114.535 21.6876" fill="#706F6F"></path><path d="M147.616 10.5983V21.5329C147.616 23.9716 147.616 25.5886 146.387 27.0295C145.82 27.6565 145.122 28.1512 144.342 28.4787C143.562 28.8061 142.72 28.9581 141.875 28.9239C140.271 28.9239 138.309 28.3903 137.977 25.8821C137.892 25.3485 137.892 25.1884 137.892 23.0164V10.5983H133.652V23.3313C133.652 26.8854 133.652 28.8439 135.256 30.685C136.122 31.7523 137.769 32.9637 140.688 32.9637C142.002 32.9851 143.304 32.7131 144.499 32.1674C145.694 31.6217 146.752 30.8162 147.595 29.8098V32.4247H151.829V10.5983H147.616Z" fill="#706F6F"></path><path d="M166.926 10.3208H166.584C165.232 10.3635 161.853 10.4649 159.666 13.5761V10.5876H155.389V32.414H159.666V22.0451C159.666 20.2467 159.666 18.5497 160.522 17.1249C161.441 15.6093 163.077 14.7715 165.135 14.7715C165.621 14.7739 166.107 14.8024 166.589 14.8568L166.953 14.8942V10.673L166.926 10.3208Z" fill="#706F6F"></path><path d="M179.163 19.6384L177.137 19.1421C174.224 18.4377 172.326 17.8507 172.326 16.143C172.326 14.8035 173.668 13.3787 176.17 13.3787C177.564 13.3265 178.936 13.7458 180.062 14.5687C181.297 15.5239 181.414 16.3991 181.457 17.7279V18.0961L186.028 17.5091L185.98 17.1729C185.477 13.6935 182.74 9.96863 176.56 9.96863C171.385 9.96863 168.033 12.5728 168.033 16.5912C168.033 21.2127 172.337 22.2319 175.79 23.0484L177.929 23.4807C180.489 23.9717 182.061 24.3879 182.061 26.5225C182.061 29.2762 179.142 29.6871 177.405 29.6871C175.983 29.6871 174.507 29.5537 173.347 28.5557C172.809 28.0773 172.395 27.476 172.141 26.8031C171.887 26.1302 171.8 25.4059 171.887 24.6921V24.2865L167.113 25.0283L167.151 25.3431C167.248 26.5146 167.592 27.6524 168.158 28.683C168.724 29.7136 169.501 30.6138 170.439 31.3254C172.042 32.4674 174.448 33.0971 177.201 33.0971C183.553 33.0971 186.445 29.4523 186.445 26.0689C186.445 21.3354 181.681 20.2308 179.126 19.6384" fill="#706F6F"></path><path d="M204.648 24.7081L204.579 25.0069C204.194 26.7573 202.975 29.6871 199.286 29.6871C198.464 29.7176 197.644 29.5778 196.879 29.2765C196.113 28.9753 195.418 28.5191 194.838 27.9367C193.48 26.4199 192.745 24.4475 192.78 22.4134H208.888V22.0772C208.916 20.6042 208.778 19.1328 208.476 17.6906C207.124 11.9698 202.595 9.93127 198.853 9.93127C193.753 9.93127 188.263 13.4907 188.263 21.3141C188.263 28.5557 192.374 33.0544 198.992 33.0544C202.349 33.0544 206.797 31.7843 208.877 25.7327L209.021 25.3058L204.648 24.7081ZM192.887 19.1795C193.352 15.5666 195.496 13.336 198.543 13.336C199.425 13.336 203.766 13.6188 204.258 19.2061L192.887 19.1795Z" fill="#706F6F"></path><path d="M69.4831 10.5983H64.1958L74.8666 28.0061H80.1378L69.4831 10.5983Z" fill="#49B1E5"></path><path d="M80.4479 10.5983L73.6424 21.4155L62.608 39.2714H67.9007L76.5506 25.2631L85.7406 10.5983H80.4479Z" fill="#706F6F"></path><path d="M74.8666 28.006H65.4789L62.7417 32.4193H77.4007L80.1379 28.006H74.8666Z" fill="#49B1E5"></path></svg>